{
    "asset" : {
        "generator" : "Khronos glTF Blender I/O v3.4.50",
        "version" : "2.0"
    },
    "extensionsUsed" : [
        "KHR_materials_specular",
        "KHR_materials_ior"
    ],
    "scene" : 0,
    "scenes" : [
        {
            "name" : "Scene",
            "nodes" : [
                0,
                1
            ]
        }
    ],
    "nodes" : [
        {
            "mesh" : 0,
            "name" : "laptop"
        },
        {
            "mesh" : 1,
            "name" : "laptop.001",
            "translation" : [
                0,
                0,
                0.08272075653076172
            ]
        }
    ],
    "materials" : [
        {
            "doubleSided" : true,
            "extensions" : {
                "KHR_materials_specular" : {
                    "specularColorFactor" : [
                        2.371357614441398,
                        2.371357614441398,
                        2.371357614441398
                    ]
                },
                "KHR_materials_ior" : {
                    "ior" : 1.4500000476837158
                }
            },
            "name" : "Material.010",
            "pbrMetallicRoughness" : {
                "baseColorFactor" : [
                    0.1371954381465912,
                    0.1488162726163864,
                    0.17335347831249237,
                    1
                ],
                "metallicFactor" : 0,
                "roughnessFactor" : 0
            }
        },
        {
            "doubleSided" : true,
            "extensions" : {
                "KHR_materials_specular" : {
                    "specularColorFactor" : [
                        2.371357614441398,
                        2.371357614441398,
                        2.371357614441398
                    ]
                },
                "KHR_materials_ior" : {
                    "ior" : 1.4500000476837158
                }
            },
            "name" : "Material.011",
            "pbrMetallicRoughness" : {
                "baseColorFactor" : [
                    0.02720474824309349,
                    0.024924546480178833,
                    0.021817397326231003,
                    1
                ],
                "metallicFactor" : 0,
                "roughnessFactor" : 0
            }
        }
    ],
    "meshes" : [
        {
            "name" : "Cube.001",
            "primitives" : [
                {
                    "attributes" : {
                        "POSITION" : 0,
                        "TEXCOORD_0" : 1,
                        "NORMAL" : 2
                    },
                    "indices" : 3,
                    "material" : 0
                },
                {
                    "attributes" : {
                        "POSITION" : 4,
                        "TEXCOORD_0" : 5,
                        "NORMAL" : 6
                    },
                    "indices" : 7,
                    "material" : 1
                }
            ]
        },
        {
            "name" : "Cube.003",
            "primitives" : [
                {
                    "attributes" : {
                        "POSITION" : 8,
                        "TEXCOORD_0" : 9,
                        "NORMAL" : 10
                    },
                    "indices" : 11,
                    "material" : 1
                }
            ]
        }
    ],
    "accessors" : [
        {
            "bufferView" : 0,
            "componentType" : 5126,
            "count" : 2234,
            "max" : [
                1.60728919506073,
                1.937402606010437,
                1.3822965621948242
            ],
            "min" : [
                -1.6072883605957031,
                -0.4961453080177307,
                -1.4242594242095947
            ],
            "type" : "VEC3"
        },
        {
            "bufferView" : 1,
            "componentType" : 5126,
            "count" : 2234,
            "type" : "VEC2"
        },
        {
            "bufferView" : 2,
            "componentType" : 5126,
            "count" : 2234,
            "type" : "VEC3"
        },
        {
            "bufferView" : 3,
            "componentType" : 5123,
            "count" : 13056,
            "type" : "SCALAR"
        },
        {
            "bufferView" : 4,
            "componentType" : 5126,
            "count" : 17597,
            "max" : [
                1.279861330986023,
                0.0012216967297717929,
                0.6563766002655029
            ],
            "min" : [
                -1.2798603773117065,
                -0.13790179789066315,
                -0.5350404977798462
            ],
            "type" : "VEC3"
        },
        {
            "bufferView" : 5,
            "componentType" : 5126,
            "count" : 17597,
            "type" : "VEC2"
        },
        {
            "bufferView" : 6,
            "componentType" : 5126,
            "count" : 17597,
            "type" : "VEC3"
        },
        {
            "bufferView" : 7,
            "componentType" : 5123,
            "count" : 95328,
            "type" : "SCALAR"
        },
        {
            "bufferView" : 8,
            "componentType" : 5126,
            "count" : 104,
            "max" : [
                1.307152509689331,
                1.7086960077285767,
                -0.8423686623573303
            ],
            "min" : [
                -1.3071527481079102,
                0.16473104059696198,
                -1.0857293605804443
            ],
            "type" : "VEC3"
        },
        {
            "bufferView" : 9,
            "componentType" : 5126,
            "count" : 104,
            "type" : "VEC2"
        },
        {
            "bufferView" : 10,
            "componentType" : 5126,
            "count" : 104,
            "type" : "VEC3"
        },
        {
            "bufferView" : 11,
            "componentType" : 5123,
            "count" : 276,
            "type" : "SCALAR"
        }
    ],
    "bufferViews" : [
        {
            "buffer" : 0,
            "byteLength" : 26808,
            "byteOffset" : 0,
            "target" : 34962
        },
        {
            "buffer" : 0,
            "byteLength" : 17872,
            "byteOffset" : 26808,
            "target" : 34962
        },
        {
            "buffer" : 0,
            "byteLength" : 26808,
            "byteOffset" : 44680,
            "target" : 34962
        },
        {
            "buffer" : 0,
            "byteLength" : 26112,
            "byteOffset" : 71488,
            "target" : 34963
        },
        {
            "buffer" : 0,
            "byteLength" : 211164,
            "byteOffset" : 97600,
            "target" : 34962
        },
        {
            "buffer" : 0,
            "byteLength" : 140776,
            "byteOffset" : 308764,
            "target" : 34962
        },
        {
            "buffer" : 0,
            "byteLength" : 211164,
            "byteOffset" : 449540,
            "target" : 34962
        },
        {
            "buffer" : 0,
            "byteLength" : 190656,
            "byteOffset" : 660704,
            "target" : 34963
        },
        {
            "buffer" : 0,
            "byteLength" : 1248,
            "byteOffset" : 851360,
            "target" : 34962
        },
        {
            "buffer" : 0,
            "byteLength" : 832,
            "byteOffset" : 852608,
            "target" : 34962
        },
        {
            "buffer" : 0,
            "byteLength" : 1248,
            "byteOffset" : 853440,
            "target" : 34962
        },
        {
            "buffer" : 0,
            "byteLength" : 552,
            "byteOffset" : 854688,
            "target" : 34963
        }
    ],
    "buffers" : [
        {
            "byteLength" : 855240,
            "uri" : "laptop.bin"
        }
    ]
}
